<svg version="1.2" xmlns="http://www.w3.org/2000/svg" viewBox="0 0 76 72" width="76" height="72">
	<title>Asset 1mywish-svg</title>
	<defs>
		<clipPath clipPathUnits="userSpaceOnUse" id="cp1">
			<path d="m0 0h75.94v71.07h-75.94z"/>
		</clipPath>
		<clipPath clipPathUnits="userSpaceOnUse" id="cp2">
			<path d="m0 0h75.94v71.07h-75.94z"/>
		</clipPath>
		<clipPath clipPathUnits="userSpaceOnUse" id="cp3">
			<path d="m0 0h75.94v71.07h-75.94z"/>
		</clipPath>
		<clipPath clipPathUnits="userSpaceOnUse" id="cp4">
			<path d="m0 0h75.94v71.07h-75.94z"/>
		</clipPath>
		<clipPath clipPathUnits="userSpaceOnUse" id="cp5">
			<path d="m0 0h75.94v71.07h-75.94z"/>
		</clipPath>
		<clipPath clipPathUnits="userSpaceOnUse" id="cp6">
			<path d="m0 0h75.94v71.07h-75.94z"/>
		</clipPath>
		<clipPath clipPathUnits="userSpaceOnUse" id="cp7">
			<path d="m0 0h75.94v71.07h-75.94z"/>
		</clipPath>
		<clipPath clipPathUnits="userSpaceOnUse" id="cp8">
			<path d="m0 0h75.94v71.07h-75.94z"/>
		</clipPath>
		<clipPath clipPathUnits="userSpaceOnUse" id="cp9">
			<path d="m0 0h75.94v71.07h-75.94z"/>
		</clipPath>
		<clipPath clipPathUnits="userSpaceOnUse" id="cp10">
			<path d="m0 0h75.94v71.07h-75.94z"/>
		</clipPath>
		<clipPath clipPathUnits="userSpaceOnUse" id="cp11">
			<path d="m0 0h75.94v71.07h-75.94z"/>
		</clipPath>
		<clipPath clipPathUnits="userSpaceOnUse" id="cp12">
			<path d="m0 0h75.94v71.07h-75.94z"/>
		</clipPath>
		<clipPath clipPathUnits="userSpaceOnUse" id="cp13">
			<path d="m0 0h75.94v71.07h-75.94z"/>
		</clipPath>
		<clipPath clipPathUnits="userSpaceOnUse" id="cp14">
			<path d="m0 0h75.94v71.07h-75.94z"/>
		</clipPath>
		<clipPath clipPathUnits="userSpaceOnUse" id="cp15">
			<path d="m0 0h75.94v71.07h-75.94z"/>
		</clipPath>
		<clipPath clipPathUnits="userSpaceOnUse" id="cp16">
			<path d="m0 0h75.94v71.07h-75.94z"/>
		</clipPath>
	</defs>
	<style>
		.s0 { fill: #ffffff } 
	</style>
	<g id="Layer">
		<g id="Clip-Path" clip-path="url(#cp1)">
			<path id="Layer" fill-rule="evenodd" class="s0" d="m31.3 16.4c0 0-2.2 14.8-7.6 14.5-4.5-0.2-6-5.3-5.7-12.6 0 0 0.2-8.3-0.4-8 0 0-1 3.2-2.1 7.9 0 0-0.8 4-1 5.4-0.3 1.8-2.4 1.5-2.4 1.5-3.8-0.3-3.2-12.2-3.2-12.2-2 2.5-3.2 16.3-3.2 16.3q0 0.4-0.3 0.8c-0.4 0.5-1 0.9-1.7 1-1.1 0.2-2.4-0.4-2.6-1.5-0.7-3.7-1-7.7-1.1-11.6 0 0-0.1-4.6 0.5-9.2 0.1-0.8 0.8-1.5 1.6-1.7 0.8-0.3 1.9-0.3 2.9 0.3 0.7 0.4 0.9 1.1 0.8 1.8-0.3 1.5-0.8 4.9-0.9 8.7-0.1 0.9-0.1 1.9 0 2.8 0.6-4.5 1.9-10.8 4.2-11.1 1.2-0.2 2.9 0.3 3.5 1.4 0.8 1.2 1.1 4.7 1.2 5.9 0.9-4.2 2.3-9.4 4.6-9.4 5.9 0.1 4.7 10.8 4.7 10.8-0.2 5.2-0.6 10.8 0.9 11 0 0 2.9-0.6 5.9-12.9 0 0 0.2-1.1 1-1 0.7 0.1 0.4 1.1 0.4 1.1zm-28.3-8.6c0 0-1.8-0.5-1.6 1.7 0 0 0.8-1.3 1.6-1.7z"/>
		</g>
		<g id="Clip-Path" clip-path="url(#cp2)">
			<path id="Layer" fill-rule="evenodd" class="s0" d="m51.7 16.6q-3.1 2.5-5.4 4.7c-0.1 8-1.3 17-5.4 19.8q-0.4 0.3-0.8 0.3c-1 0.1-3.9-0.9-5.3-3.2-0.5-0.7-0.6-1.7-0.3-2.5 0.7-2.1 2.7-6.7 7.1-12 0.2-2.5 0.2-5 0.2-7.3-1.5 4.9-4 11.6-6.1 11.8-3.4 0.4-6.3-4.1-6.2-9.7 0.1-4.2 0.6-8.1 0.9-9.9 0.2-0.7 0.7-1.3 1.5-1.5 0.8-0.2 2-0.3 3 0.2 0.7 0.3 1 0.9 0.9 1.6-0.4 1.8-1.1 5.7-1.2 9.2-0.2 4.5 0.5 7.7 1.1 8 0.6 0.3 4.9-10.7 5.9-16.1q-0.1-1-0.1-1.5c-0.1-0.6 0.2-1.1 0.7-1.3 0.6-0.3 1.3-0.4 2-0.3 0.6 0.1 1.1 0.5 1.3 1.2 0.4 1.7 0.8 5.9 0.8 10.9 1.4-1.3 3-2.5 4.6-3.8 0 0 1-0.7 1.4-0.1 0.5 0.7-0.6 1.5-0.6 1.5zm-18.9-8.8c0 0-1.8-0.4-1.6 1.8 0 0 0.7-1.3 1.6-1.8zm8.6 19c-5 6.8-4.7 11.3-4.7 11.3 2.8-0.4 4.2-5.4 4.7-11.3z"/>
		</g>
		<g id="Clip-Path" clip-path="url(#cp3)">
			<path id="Layer" fill-rule="evenodd" class="s0" d="m70 11.8q-0.3-0.1-0.6-0.1-0.3 0.1-0.5 0.1-0.4 0-0.9 0-0.2 0-0.4 0-0.5 0-0.9 0c-0.2 0-0.3 0.1-0.4 0.3q-0.3 0.9-0.6 1.7-0.2 0.6-0.4 1.2-0.1 0.2-0.2 0.4-0.1 0.3-0.4 0.3-0.3 0-0.4-0.3-0.1-0.3-0.2-0.5-0.3-0.7-0.5-1.4-0.2-0.6-0.4-1.2c-0.1-0.1-0.1-0.3-0.2-0.3q-0.1-0.2-0.3-0.2-0.4 0-0.8 0-0.3 0-0.5 0-0.3 0-0.5 0-0.3 0-0.5 0-0.2 0-0.5 0-0.2 0-0.5 0-0.1 0-0.2-0.1c-0.3 0-0.4-0.2-0.4-0.5q0-0.2 0.2-0.3 0.6-0.4 1.1-0.9 0.6-0.4 1.1-0.8 0.3-0.2 0.5-0.4 0.3-0.2 0.2-0.5-0.1-0.4-0.2-0.7-0.2-0.6-0.4-1.1-0.1-0.6-0.3-1.1-0.1-0.2-0.1-0.4c-0.1-0.2 0-0.5 0.2-0.6q0.3-0.1 0.5 0.1 0.4 0.2 0.7 0.4 0.6 0.4 1.1 0.8 0.3 0.2 0.6 0.4 0.3 0.2 0.5 0.3 0.2 0.2 0.5 0 0.5-0.4 1-0.7 0.7-0.5 1.3-0.9 0.3-0.2 0.5-0.4c0.2-0.1 0.5-0.1 0.6 0.1q0.2 0.2 0.1 0.5-0.2 0.7-0.4 1.5-0.2 0.5-0.3 1-0.2 0.4-0.3 0.8c0 0.2 0.1 0.4 0.2 0.5q0.6 0.4 1.1 0.8 0.6 0.5 1.2 0.9 0.2 0.2 0.4 0.4c0.3 0.2 0.3 0.5 0.1 0.7q-0.1 0.1-0.3 0.1-0.1 0-0.2 0 0 0 0 0zm-0.2-0.4q0.2 0 0.4 0 0 0 0 0c0-0.1 0-0.1-0.1-0.1q-0.2-0.2-0.5-0.4-0.4-0.3-0.8-0.7-0.2-0.1-0.4-0.3-0.4-0.3-0.8-0.6c-0.2-0.1-0.3-0.2-0.4-0.3q-0.1-0.2-0.1-0.4c0-0.1 0-0.3 0-0.4q0.2-0.6 0.4-1.1 0.1-0.4 0.2-0.7 0.1-0.4 0.2-0.8 0.1-0.3 0.2-0.6 0-0.1 0-0.1-0.1 0-0.1 0-0.1 0.1-0.2 0.1-0.6 0.5-1.2 0.9-0.5 0.3-0.9 0.6-0.3 0.2-0.5 0.4-0.3 0.2-0.6 0.1-0.1 0-0.3-0.1-0.3-0.2-0.7-0.5-0.3-0.2-0.6-0.4-0.3-0.2-0.7-0.5-0.2-0.1-0.5-0.3-0.2-0.2-0.4-0.3-0.1-0.1-0.1 0 0 0 0 0 0.1 0.3 0.1 0.6 0.2 0.5 0.4 1 0.1 0.4 0.2 0.7 0.1 0.5 0.3 1.1 0.1 0.2 0 0.3 0 0.3-0.2 0.5-0.1 0.1-0.3 0.2-0.4 0.3-0.8 0.6-0.4 0.3-0.7 0.6-0.3 0.2-0.7 0.5-0.2 0.1-0.3 0.2-0.1 0.1-0.1 0.1 0.1 0.1 0.1 0.1 0.4 0 0.8 0 0.4 0 0.9 0 0.4 0 0.8 0 0.4 0 0.9 0 0.1 0 0.3 0.1 0.3 0.1 0.5 0.4 0.1 0.2 0.1 0.4 0.1 0.3 0.2 0.6 0.2 0.4 0.3 0.8 0.2 0.6 0.4 1.3 0.1 0.1 0.2 0.3 0 0 0 0c0.1 0 0.1 0 0.1 0q0-0.2 0.1-0.4 0.2-0.5 0.3-0.9 0.2-0.6 0.5-1.3 0.1-0.4 0.2-0.8 0.2-0.4 0.6-0.5 0.3 0 0.5 0 0.4 0 0.8 0 0.5 0 0.9 0 0.6 0 1.1 0z"/>
		</g>
		<g id="Clip-Path" clip-path="url(#cp4)">
			<path id="Layer" fill-rule="evenodd" class="s0" d="m73.2 0.1q-0.3 0.1-0.5 0.1-0.4 0.1-0.7 0.2-0.5 0.2-1 0.4-0.4 0.2-0.9 0.4-0.4 0.2-0.9 0.5-0.7 0.4-1.4 0.8-0.5 0.4-1 0.7-0.5 0.3-0.9 0.7-0.4 0.3-0.8 0.6-0.5 0.3-0.9 0.6-0.1 0.1-0.2 0.2-0.1 0-0.1 0-0.4-0.2-0.7-0.4-0.5-0.3-1-0.7-0.2 0-0.3-0.1 0 0 0-0.1 0.2-0.1 0.4-0.3 0.4-0.4 0.8-0.7 0.5-0.4 1.1-0.8 0.4-0.2 0.8-0.4 0.3-0.2 0.6-0.4 0.4-0.2 0.8-0.4 0.4-0.1 0.8-0.2 0.7-0.3 1.4-0.4 0.5-0.2 1-0.2 0.4-0.1 0.7-0.1 0.5-0.1 0.9-0.1 0.5 0 0.9 0 0.4 0 0.7 0.1 0.2 0 0.3 0 0.1 0 0.1 0zm-2.5 0.4q-0.1 0-0.1 0-0.3 0-0.6 0-0.3 0.1-0.6 0.1-0.3 0.1-0.7 0.2-0.8 0.1-1.5 0.4-0.5 0.2-1 0.4-0.4 0.2-0.8 0.4-0.4 0.2-0.7 0.4-0.6 0.4-1.1 0.8-0.3 0.2-0.5 0.4-0.2 0.2-0.4 0.3c-0.1 0.1-0.1 0.1 0 0.1q0.3 0.2 0.7 0.5 0.2 0.1 0.5 0.3 0 0 0 0 0 0 0.1 0 0.3-0.4 0.7-0.7 0.4-0.2 0.8-0.5 0.5-0.4 1.1-0.8 0.7-0.5 1.5-1 0.6-0.3 1.2-0.7 0.4-0.2 0.7-0.3 0.2-0.1 0.5-0.3 0.1 0 0.2 0z"/>
		</g>
		<g id="Clip-Path" clip-path="url(#cp5)">
			<path id="Layer" fill-rule="evenodd" class="s0" d="m68.5 7.5q0-0.2 0.1-0.4 0.1-0.7 0.3-1.4 0.1-0.6 0.3-1.1 0-0.3 0.1-0.6 0 0 0-0.1 0.5-0.3 1-0.6 0.5-0.3 1-0.5 0.5-0.2 1-0.4 0.4-0.2 0.9-0.3 0.5-0.2 1.1-0.3 0.5-0.1 1-0.1 0.3-0.1 0.6-0.1 0 0 0 0-0.1 0.1-0.1 0.1-0.4 0.2-0.7 0.3-0.3 0.3-0.7 0.5-0.4 0.3-0.9 0.7-0.4 0.3-0.8 0.7-0.5 0.3-0.9 0.7-0.4 0.3-0.7 0.6-0.4 0.3-0.8 0.7-0.4 0.4-0.9 0.8-0.3 0.3-0.6 0.6-0.2 0.1-0.3 0.2 0 0 0 0zm5.5-5.2q-0.4 0.1-0.7 0.2-0.5 0.2-0.9 0.3-0.6 0.3-1.2 0.5-0.3 0.2-0.6 0.4-0.5 0.2-0.9 0.5 0 0 0 0.1-0.1 0.2-0.2 0.5-0.1 0.5-0.2 1.1-0.1 0.2-0.1 0.4c1.5-1.4 3.1-2.7 4.8-4z"/>
		</g>
		<g id="Clip-Path" clip-path="url(#cp6)">
			<path id="Layer" fill-rule="evenodd" class="s0" d="m75.5 4.7q-0.1 0.1-0.3 0.3-0.2 0.2-0.4 0.4-0.2 0.3-0.5 0.6-0.5 0.6-0.9 1.2-0.5 0.7-1 1.4-0.4 0.5-0.8 1.1-0.3 0.4-0.6 0.9 0 0 0 0-0.3-0.3-0.6-0.6-0.4-0.3-0.7-0.6-0.1 0-0.2-0.1 0 0 0 0 0.3-0.6 0.7-1.1 0.3-0.3 0.5-0.6 0.3-0.2 0.5-0.5 0.4-0.4 0.9-0.7 0.3-0.2 0.6-0.4 0.3-0.2 0.6-0.4 0.4-0.2 0.7-0.3 0.4-0.2 0.9-0.4 0.3-0.1 0.6-0.2zm-1.6 1.1q-0.2 0.1-0.3 0.2-0.3 0.1-0.5 0.3-0.3 0.2-0.7 0.4-0.3 0.3-0.7 0.5-0.2 0.2-0.4 0.4-0.2 0.2-0.4 0.4-0.1 0.2-0.3 0.4-0.3 0.3-0.5 0.7c-0.1 0.1-0.1 0.1 0 0.1q0.1 0.1 0.2 0.2 0.1 0.1 0.3 0.2 0.1 0.2 0.3 0.3c0 0.1 0 0.1 0.1 0q0.3-0.5 0.6-1 0.4-0.5 0.8-1.1 0.2-0.3 0.4-0.6 0.3-0.3 0.5-0.7 0.3-0.3 0.5-0.5 0.1-0.1 0.1-0.2 0 0 0 0z"/>
		</g>
		<g id="Clip-Path" clip-path="url(#cp7)">
			<path id="Layer" class="s0" d="m68.5 7.5q-0.1 0 0 0 0 0 0 0z"/>
		</g>
		<g id="Clip-Path" clip-path="url(#cp8)">
			<path id="Layer" class="s0" d="m69.8 11.3q-0.5 0-1.1 0-0.4 0-0.9 0-0.4 0.1-0.8 0.1c-0.2 0-0.3 0-0.5 0q-0.4 0-0.6 0.4c-0.1 0.3-0.1 0.6-0.2 0.9q-0.3 0.6-0.5 1.2-0.1 0.5-0.3 0.9-0.1 0.2-0.1 0.4 0 0.1-0.1 0.1 0 0 0-0.1-0.1-0.1-0.1-0.3-0.3-0.6-0.5-1.3-0.1-0.4-0.3-0.7-0.1-0.4-0.2-0.7-0.1-0.2-0.1-0.4-0.2-0.3-0.5-0.4-0.2 0-0.3 0-0.5 0-0.9 0-0.4-0.1-0.8 0-0.5-0.1-0.9-0.1-0.4 0-0.8 0 0 0-0.1 0c0-0.1 0.1-0.1 0.1-0.1q0.1-0.1 0.3-0.2 0.3-0.3 0.7-0.6 0.4-0.3 0.7-0.5 0.4-0.3 0.8-0.6 0.2-0.2 0.3-0.3 0.2-0.2 0.2-0.4 0.1-0.2 0-0.4-0.2-0.5-0.3-1-0.1-0.4-0.2-0.7-0.2-0.6-0.4-1.1 0-0.2-0.1-0.5 0-0.1 0-0.1 0 0 0.1 0 0.2 0.2 0.4 0.4 0.3 0.1 0.5 0.3 0.4 0.2 0.7 0.5 0.3 0.2 0.6 0.4 0.4 0.2 0.7 0.5 0.2 0 0.3 0.1 0.3 0 0.6-0.2 0.2-0.2 0.5-0.3 0.5-0.4 0.9-0.7 0.6-0.5 1.2-0.9 0.1 0 0.2-0.1 0 0 0.1 0 0 0 0 0.1-0.1 0.3-0.2 0.6-0.1 0.4-0.2 0.8-0.1 0.3-0.2 0.7-0.2 0.5-0.4 1.1 0 0.2 0 0.4 0 0.3 0.1 0.5c0.1 0.1 0.2 0.1 0.3 0.2q0.4 0.3 0.8 0.6 0.3 0.2 0.5 0.4 0.4 0.3 0.8 0.6 0.3 0.2 0.5 0.4c0.1 0 0.1 0 0.1 0.1q0 0-0.1 0-0.1 0-0.3 0z"/>
		</g>
		<g id="Clip-Path" clip-path="url(#cp9)">
			<path id="Layer" class="s0" d="m70.7 0.5q-0.1 0-0.3 0.1-0.2 0.1-0.4 0.2-0.3 0.2-0.7 0.4-0.6 0.3-1.2 0.7-0.8 0.4-1.5 0.9-0.6 0.4-1.2 0.8-0.3 0.3-0.7 0.6-0.4 0.3-0.8 0.6 0 0 0 0 0 0 0 0-0.3-0.2-0.5-0.3-0.4-0.2-0.8-0.5c0 0 0 0 0 0q0.2-0.2 0.4-0.4 0.3-0.2 0.6-0.4 0.5-0.4 1-0.7 0.4-0.3 0.8-0.5 0.4-0.2 0.7-0.3 0.6-0.3 1.1-0.5 0.7-0.2 1.5-0.4 0.3-0.1 0.7-0.2 0.3 0 0.6 0 0.3-0.1 0.6-0.1 0 0 0.1 0z"/>
		</g>
		<g id="Clip-Path" clip-path="url(#cp10)">
			<path id="Layer" class="s0" d="m74 2.3c-1.7 1.3-3.3 2.6-4.8 4q0-0.2 0.1-0.4 0.1-0.6 0.2-1.1 0.1-0.3 0.2-0.5 0-0.1 0-0.1 0.4-0.3 0.9-0.5 0.3-0.2 0.6-0.4 0.6-0.3 1.2-0.5 0.4-0.2 0.9-0.3 0.3-0.1 0.7-0.2z"/>
		</g>
		<g id="Clip-Path" clip-path="url(#cp11)">
			<path id="Layer" class="s0" d="m73.9 5.8q-0.1 0.1-0.1 0.2-0.2 0.2-0.5 0.5-0.2 0.4-0.5 0.8-0.2 0.2-0.4 0.5-0.4 0.6-0.8 1.1-0.3 0.5-0.6 1c-0.1 0.1-0.1 0.1-0.1 0q-0.2-0.1-0.3-0.3-0.2-0.1-0.3-0.2-0.1-0.1-0.2-0.2c-0.1 0-0.1 0 0-0.1q0.2-0.4 0.5-0.7 0.2-0.2 0.3-0.4 0.2-0.2 0.4-0.4 0.2-0.2 0.4-0.3 0.4-0.3 0.7-0.6 0.4-0.2 0.7-0.4 0.2-0.2 0.5-0.3 0.1-0.1 0.3-0.2z"/>
		</g>
		<g id="Clip-Path" clip-path="url(#cp12)">
			<path id="Layer" class="s0" d="m73.9 5.8q0 0 0 0 0 0 0 0z"/>
		</g>
		<g id="Clip-Path" clip-path="url(#cp13)">
			<path id="Layer" fill-rule="evenodd" class="s0" d="m39.5 54.6c0 0-2.3 14.8-7.7 14.5-7.3-0.4-5.8-16.5-5.2-21 0.1-0.8 0.6-1.4 1.3-1.6 0.8-0.3 1.9-0.4 2.8 0 0.8 0.5 1.3 1.4 1.2 2.4-0.5 3.8-2.2 18.2 0.2 18.5 0 0 2.9-0.6 6-12.9 0 0 0.2-1.1 0.9-1 0.7 0.1 0.5 1.1 0.5 1.1zm-10.8-7.3c0 0-1.6-0.5-1.5 2.4 0 0 0.4-1.5 1.5-2.4z"/>
		</g>
		<g id="Clip-Path" clip-path="url(#cp14)">
			<path id="Layer" fill-rule="evenodd" class="s0" d="m68.3 69.1c-4.5-0.2-6-5.3-5.8-12.6 0 0 0.3-8.4-0.3-8 0 0-4.8 8.4-5.7 18.7h-0.1q0 0.5-0.3 1c-0.4 0.5-1 0.8-1.7 0.9-1.1 0.2-2.3-0.3-2.6-1.5-0.7-3.6-1-7.7-1.1-11.5-0.2-6.4 0-13.1 2.1-19.2 0.6-1.7 1.6-4.7 3.7-5 1.8-0.4 4.6 0 5 2 0.4 2.1 0 4.5-0.4 6.5-0.9 4.5-2.9 8.7-5.5 12.5-0.1 2.5 0 5 0.2 7.4 1.2-6.1 3.6-14.7 7.1-14.7 5.9 0 4.8 10.8 4.8 10.8-0.2 5.1-0.6 10.8 0.9 11 0 0 2.9-0.6 5.9-13 0 0 0.2-1 0.9-1 0.7 0.2 0.5 1.2 0.5 1.2 0 0-2.3 14.8-7.6 14.5zm-13.1-34.8c0 0 1.8-1.5 2.4-1.5 0 0-2-0.6-2.4 1.5zm1.9 4.9c-0.7 3.2-1.2 6.4-1.4 9.6 2.8-5.4 5.4-13.4 4.2-14.3-0.3-0.3-1.9 1.1-2.8 4.7z"/>
		</g>
		<g id="Clip-Path" clip-path="url(#cp15)">
			<path id="Layer" fill-rule="evenodd" class="s0" d="m18 69.1c-1.6 0.1-2.9-0.6-3.7-1.2-0.5-0.4-1-1-1.2-1.8-0.8-3.2-1.1-11-1.1-11-0.8 5.3-2.5 13.7-5.1 14-3.4 0.5-6.5-4.6-6.8-10.8-0.3-5.5 0.1-9.3 0.3-11.1 0.1-0.8 0.7-1.4 1.4-1.6 0.9-0.2 2.2-0.3 3.4 0.3 0.6 0.3 1 1 0.9 1.7-0.3 1.9-0.8 6.3-0.8 10.2 0.1 5.5 0.8 8.6 1.4 8.9 0.6 0.3 2.5-7.9 3.2-15.6 0-0.9 0.6-1.7 1.4-1.9 0.8-0.3 1.9-0.5 3-0.1 0.6 0.2 1.1 0.8 1.2 1.5 0.3 3.3 1.4 13.9 2.6 15.3 0.1 0.1 1.8-2.1 2.8-7.4-1.3-0.6-3-2.2-3.1-6.6-0.3-7.1 2.1-6.8 2.1-6.8 2.9-0.3 3.7 4.2 3.4 10.5-0.1 0.5-0.1 1-0.2 1.5 0.6 0.2 1.3 0.4 1.3 1 0 0.8-0.9 0.9-1.6 0.9-1 5.2-3.3 10-4.8 10.1zm-15.3-22.9c0 0-1.8-0.1-1.6 2.2 0.3-0.7 1.1-1.7 1.6-2.2zm18.5 10c0-0.2 0-0.4 0-0.6 0 0 0.5-7.5-0.9-8.2 0 0-0.4 2.1-0.3 5.2 0.1 1.7 0.6 2.9 1.2 3.6z"/>
		</g>
		<g id="Clip-Path" clip-path="url(#cp16)">
			<path id="Layer" fill-rule="evenodd" class="s0" d="m37.7 68.4c-0.6-1.5 0.4-5.5 3.2-9-2.7-4.2-3-8.2-3-8.2-0.7-4.4 3.9-5.8 3.9-5.8 0 0 2.9-1.2 4.3 1.1 1 1.6-0.2 4.1-2.1 5.9 0.3 0.9 0.7 2 1.1 3.2 1.8-1 3.8-1.8 6.1-2.1 0 0 1.3-0.3 1.4 0.4 0.2 1-0.9 1.2-0.9 1.2-3.3 0.7-4.7 1.4-5.8 2.2 1.4 3.2 3.5 8.3 0.9 11.3-3.2 3.8-8 2.8-9.1-0.2zm2.7-20.9c-2.2 0.7-1.3 2.8-1.3 2.8 0.2-1.1 1.3-2.8 1.3-2.8zm0.2 21.2c1.7 0.7 3-1.4 3-1.4 1-2.2-1-5.3-1.7-6.3-2.7 3.9-1.3 7.7-1.3 7.7zm2.8-18c0.9-1 0.9-2 0.8-2.6-0.3-1.1-1.2-0.9-1.2-0.9 0 0-0.5 0.3 0.4 3.5z"/>
		</g>
	</g>
</svg>