<svg width="25" height="25" viewBox="0 0 25 25" fill="none" xmlns="http://www.w3.org/2000/svg">
<path d="M2.78125 6.51562H23.0938C23.5252 6.51562 23.875 6.16587 23.875 5.73438V3.78125C23.875 3.34976 23.5252 3 23.0938 3H2.78125C2.34976 3 2 3.34976 2 3.78125V5.73438C2 6.16587 2.34976 6.51562 2.78125 6.51562ZM2.78125 14.3281H23.0938C23.5252 14.3281 23.875 13.9784 23.875 13.5469V11.5938C23.875 11.1623 23.5252 10.8125 23.0938 10.8125H2.78125C2.34976 10.8125 2 11.1623 2 11.5938V13.5469C2 13.9784 2.34976 14.3281 2.78125 14.3281ZM2.78125 22.1406H23.0938C23.5252 22.1406 23.875 21.7909 23.875 21.3594V19.4062C23.875 18.9748 23.5252 18.625 23.0938 18.625H2.78125C2.34976 18.625 2 18.9748 2 19.4062V21.3594C2 21.7909 2.34976 22.1406 2.78125 22.1406Z" fill="white"/>
</svg>
