<svg width="17" height="16" viewBox="0 0 17 16" fill="none" xmlns="http://www.w3.org/2000/svg">
<g id="fluent-mdl2:task-list" clip-path="url(#clip0_7_44)">
<path id="Vector" d="M6.30126 2H16.8033V3H6.30126V2ZM6.30126 8V7H16.8033V8H6.30126ZM6.30126 13V12H16.8033V13H6.30126ZM2.10042 6C2.39032 6 2.66108 6.05208 2.91269 6.15625C3.1643 6.26042 3.38857 6.40365 3.58548 6.58594C3.78239 6.76823 3.93282 6.97917 4.03674 7.21875C4.14067 7.45833 4.19537 7.71875 4.20084 8C4.20084 8.27604 4.14614 8.53385 4.03674 8.77344C3.92735 9.01302 3.77692 9.22656 3.58548 9.41406C3.39404 9.60156 3.17251 9.74479 2.92089 9.84375C2.66928 9.94271 2.39579 9.99479 2.10042 10C1.81052 10 1.53976 9.94792 1.28815 9.84375C1.03653 9.73958 0.812271 9.59635 0.615357 9.41406C0.418443 9.23177 0.268022 9.02083 0.164095 8.78125C0.0601682 8.54167 0.00546984 8.28125 0 8C0 7.72396 0.0546984 7.46615 0.164095 7.22656C0.273492 6.98698 0.423913 6.77344 0.615357 6.58594C0.806801 6.39844 1.02833 6.25521 1.27994 6.15625C1.53156 6.05729 1.80505 6.00521 2.10042 6ZM2.10042 9.125C2.26451 9.125 2.41767 9.09635 2.55989 9.03906C2.7021 8.98177 2.82517 8.90104 2.9291 8.79688C3.03303 8.69271 3.11781 8.57292 3.18345 8.4375C3.24908 8.30208 3.2819 8.15625 3.2819 8C3.2819 7.84375 3.25182 7.69792 3.19165 7.5625C3.13148 7.42708 3.0467 7.3099 2.9373 7.21094C2.82791 7.11198 2.7021 7.03125 2.55989 6.96875C2.41767 6.90625 2.26451 6.875 2.10042 6.875C1.93632 6.875 1.78317 6.90365 1.64095 6.96094C1.49874 7.01823 1.37566 7.09896 1.27174 7.20312C1.16781 7.30729 1.08303 7.42708 1.01739 7.5625C0.951752 7.69792 0.918933 7.84375 0.918933 8C0.918933 8.15625 0.949017 8.30208 1.00919 8.4375C1.06935 8.57292 1.15414 8.6901 1.26353 8.78906C1.37293 8.88802 1.49874 8.96875 1.64095 9.03125C1.78317 9.09375 1.93632 9.125 2.10042 9.125ZM2.10042 11C2.39032 11 2.66108 11.0521 2.91269 11.1562C3.1643 11.2604 3.38857 11.4036 3.58548 11.5859C3.78239 11.7682 3.93282 11.9792 4.03674 12.2188C4.14067 12.4583 4.19537 12.7188 4.20084 13C4.20084 13.276 4.14614 13.5339 4.03674 13.7734C3.92735 14.013 3.77692 14.2266 3.58548 14.4141C3.39404 14.6016 3.17251 14.7448 2.92089 14.8438C2.66928 14.9427 2.39579 14.9948 2.10042 15C1.81052 15 1.53976 14.9479 1.28815 14.8438C1.03653 14.7396 0.812271 14.5964 0.615357 14.4141C0.418443 14.2318 0.268022 14.0208 0.164095 13.7812C0.0601682 13.5417 0.00546984 13.2812 0 13C0 12.724 0.0546984 12.4661 0.164095 12.2266C0.273492 11.987 0.423913 11.7734 0.615357 11.5859C0.806801 11.3984 1.02833 11.2552 1.27994 11.1562C1.53156 11.0573 1.80505 11.0052 2.10042 11ZM2.10042 14.125C2.26451 14.125 2.41767 14.0964 2.55989 14.0391C2.7021 13.9818 2.82517 13.901 2.9291 13.7969C3.03303 13.6927 3.11781 13.5729 3.18345 13.4375C3.24908 13.3021 3.2819 13.1562 3.2819 13C3.2819 12.8438 3.25182 12.6979 3.19165 12.5625C3.13148 12.4271 3.0467 12.3099 2.9373 12.2109C2.82791 12.112 2.7021 12.0312 2.55989 11.9688C2.41767 11.9062 2.26451 11.875 2.10042 11.875C1.93632 11.875 1.78317 11.9036 1.64095 11.9609C1.49874 12.0182 1.37566 12.099 1.27174 12.2031C1.16781 12.3073 1.08303 12.4271 1.01739 12.5625C0.951752 12.6979 0.918933 12.8438 0.918933 13C0.918933 13.1562 0.949017 13.3021 1.00919 13.4375C1.06935 13.5729 1.15414 13.6901 1.26353 13.7891C1.37293 13.888 1.49874 13.9688 1.64095 14.0312C1.78317 14.0938 1.93632 14.125 2.10042 14.125ZM1.57531 2.79688L3.83162 0.648438L4.57005 1.35156L1.57531 4.20312L0.15589 2.85156L0.894319 2.14844L1.57531 2.79688Z" fill="#282828"/>
</g>
<defs>
<clipPath id="clip0_7_44">
<rect width="16.8033" height="16" fill="white"/>
</clipPath>
</defs>
</svg>
