<svg width="28" height="25" viewBox="0 0 28 25" fill="none" xmlns="http://www.w3.org/2000/svg">
<g id="ic:round-plus">
<path id="Vector" d="M20.4678 13.5396H14.7823V18.7479C14.7823 19.0242 14.6625 19.2891 14.4493 19.4845C14.236 19.6798 13.9468 19.7896 13.6452 19.7896C13.3436 19.7896 13.0544 19.6798 12.8412 19.4845C12.6279 19.2891 12.5081 19.0242 12.5081 18.7479V13.5396H6.82261C6.52103 13.5396 6.23181 13.4298 6.01856 13.2345C5.80531 13.0391 5.68551 12.7742 5.68551 12.4979C5.68551 12.2216 5.80531 11.9567 6.01856 11.7613C6.23181 11.566 6.52103 11.4562 6.82261 11.4562H12.5081V6.24792C12.5081 5.97165 12.6279 5.7067 12.8412 5.51135C13.0544 5.316 13.3436 5.20625 13.6452 5.20625C13.9468 5.20625 14.236 5.316 14.4493 5.51135C14.6625 5.7067 14.7823 5.97165 14.7823 6.24792V11.4562H20.4678C20.7694 11.4562 21.0586 11.566 21.2719 11.7613C21.4851 11.9567 21.6049 12.2216 21.6049 12.4979C21.6049 12.7742 21.4851 13.0391 21.2719 13.2345C21.0586 13.4298 20.7694 13.5396 20.4678 13.5396Z" fill="#282828"/>
</g>
</svg>
