<svg width="35" height="35" viewBox="0 0 36 36" fill="none" xmlns="http://www.w3.org/2000/svg">
<g id="iconoir:user-love">
<g id="Group">
<path id="Vector" d="M18.0001 18C19.5472 18 21.0309 17.3854 22.1249 16.2915C23.2188 15.1975 23.8334 13.7138 23.8334 12.1667C23.8334 10.6196 23.2188 9.13583 22.1249 8.04187C21.0309 6.94791 19.5472 6.33333 18.0001 6.33333C16.453 6.33333 14.9693 6.94791 13.8753 8.04187C12.7813 9.13583 12.1667 10.6196 12.1667 12.1667C12.1667 13.7138 12.7813 15.1975 13.8753 16.2915C14.9693 17.3854 16.453 18 18.0001 18Z" stroke="#282828" stroke-width="3.125" stroke-linecap="round" stroke-linejoin="round"/>
<path id="Vector_2" d="M32.5833 25.7C32.5832 26.5775 32.2362 27.4194 31.6179 28.0421C30.1946 29.4771 28.8135 30.9733 27.3363 32.3558C27.1712 32.5065 26.9546 32.588 26.7312 32.5834C26.5078 32.5787 26.2947 32.4884 26.136 32.331L21.8806 28.0435C21.2621 27.4204 20.9149 26.578 20.9149 25.7C20.9149 24.822 21.2621 23.9796 21.8806 23.3564C22.1893 23.0453 22.5565 22.7983 22.9612 22.6298C23.3658 22.4612 23.7997 22.3745 24.238 22.3745C24.6763 22.3745 25.1103 22.4612 25.5149 22.6298C25.9195 22.7983 26.2867 23.0453 26.5954 23.3564L26.75 23.5125L26.9046 23.3564C27.3682 22.8888 27.9603 22.5696 28.6058 22.4394C29.2512 22.3091 29.9208 22.3736 30.5295 22.6248C31.1381 22.876 31.6584 23.3025 32.0241 23.85C32.3898 24.3976 32.5845 25.0415 32.5833 25.7Z" stroke="#282828" stroke-width="3.125" stroke-linejoin="round"/>
<path id="Vector_3" d="M7.79169 29.6667V28.2083C7.79133 26.486 8.22676 24.7916 9.05743 23.2828C9.8881 21.774 11.087 20.4999 12.5425 19.5792C13.9981 18.6584 15.6629 18.1209 17.3821 18.0166C19.1013 17.9123 20.8189 18.2448 22.375 18.9829" stroke="#282828" stroke-width="3.125" stroke-linecap="round" stroke-linejoin="round"/>
</g>
</g>
</svg>
