<svg width="17" height="16" viewBox="0 0 17 16" fill="none" xmlns="http://www.w3.org/2000/svg">
<g id="material-symbols:settings">
<path id="Vector" d="M6.59649 14.6667L6.31578 12.5333C6.16374 12.4778 6.02035 12.4111 5.88561 12.3333C5.75087 12.2556 5.61941 12.1722 5.49122 12.0833L3.4035 12.9167L1.47368 9.75L3.2807 8.45C3.269 8.37222 3.26315 8.29711 3.26315 8.22466V7.77533C3.26315 7.70288 3.269 7.62777 3.2807 7.54999L1.47368 6.25L3.4035 3.08333L5.49122 3.91666C5.61988 3.82777 5.75438 3.74444 5.89473 3.66666C6.03508 3.58888 6.17543 3.52222 6.31578 3.46666L6.59649 1.33333H10.4561L10.7368 3.46666C10.8889 3.52222 11.0323 3.58888 11.167 3.66666C11.3018 3.74444 11.4332 3.82777 11.5614 3.91666L13.6491 3.08333L15.5789 6.25L13.7719 7.54999C13.7836 7.62777 13.7895 7.70288 13.7895 7.77533V8.22466C13.7895 8.29711 13.7778 8.37222 13.7544 8.45L15.5614 9.75L13.6316 12.9167L11.5614 12.0833C11.4327 12.1722 11.2982 12.2556 11.1579 12.3333C11.0175 12.4111 10.8772 12.4778 10.7368 12.5333L10.4561 14.6667H6.59649ZM8.5614 10.3333C9.23976 10.3333 9.81871 10.1056 10.2982 9.65C10.7778 9.19444 11.0175 8.64444 11.0175 8C11.0175 7.35555 10.7778 6.80555 10.2982 6.34999C9.81871 5.89444 9.23976 5.66666 8.5614 5.66666C7.87134 5.66666 7.28935 5.89444 6.81543 6.34999C6.34152 6.80555 6.10479 7.35555 6.10526 8C6.10526 8.64444 6.34198 9.19444 6.81543 9.65C7.28888 10.1056 7.87087 10.3333 8.5614 10.3333Z" fill="#282828"/>
</g>
</svg>
