<svg width="61" height="60" viewBox="0 0 61 60" fill="none" xmlns="http://www.w3.org/2000/svg">
<g id="ic:baseline-photo-camera">
<path id="Vector" d="M30.5917 38C35.0361 38 38.639 34.4183 38.639 30C38.639 25.5817 35.0361 22 30.5917 22C26.1473 22 22.5444 25.5817 22.5444 30C22.5444 34.4183 26.1473 38 30.5917 38Z" fill="#282828"/>
<path id="Vector_2" d="M23.0473 5L18.4452 10H10.4733C7.70707 10 5.44376 12.25 5.44376 15V45C5.44376 47.75 7.70707 50 10.4733 50H50.71C53.4763 50 55.7396 47.75 55.7396 45V15C55.7396 12.25 53.4763 10 50.71 10H42.7381L38.1361 5H23.0473ZM30.5917 42.5C23.6509 42.5 18.0177 36.9 18.0177 30C18.0177 23.1 23.6509 17.5 30.5917 17.5C37.5325 17.5 43.1656 23.1 43.1656 30C43.1656 36.9 37.5325 42.5 30.5917 42.5Z" fill="#282828"/>
</g>
</svg>
