<svg width="32" height="35" viewBox="0 0 32 35" fill="none" xmlns="http://www.w3.org/2000/svg">
<g id="solar:bill-list-linear">
<rect width="32" height="35" rx="7" fill="#BABABA" fill-opacity="0.24"/>
<g id="Group">
<path id="Vector" d="M21.7707 5H11.1436C9.84848 5 9.20147 5 8.6785 5.19922C8.18546 5.39045 7.73934 5.70339 7.3748 6.11377C7.01027 6.52414 6.73711 7.02089 6.57656 7.56544C6.4 8.15456 6.4 8.883 6.4 10.3411V27.4571C6.4 28.5058 7.5007 29.0631 8.19688 28.3664C8.39219 28.1691 8.64836 28.0594 8.91429 28.0594C9.18022 28.0594 9.43638 28.1691 9.6317 28.3664L10.1714 28.9067C10.5136 29.2528 10.9625 29.445 11.4286 29.445C11.8946 29.445 12.3435 29.2528 12.6857 28.9067C13.0279 28.5606 13.4768 28.3684 13.9429 28.3684C14.4089 28.3684 14.8578 28.5606 15.2 28.9067C15.5422 29.2528 15.9911 29.445 16.4571 29.445C16.9232 29.445 17.3721 29.2528 17.7143 28.9067C18.0565 28.5606 18.5054 28.3684 18.9714 28.3684C19.4375 28.3684 19.8864 28.5606 20.2286 28.9067C20.5707 29.2528 21.0197 29.445 21.4857 29.445C21.9518 29.445 22.4007 29.2528 22.7429 28.9067L23.2826 28.3664C23.4779 28.1691 23.7341 28.0594 24 28.0594C24.2659 28.0594 24.5221 28.1691 24.7174 28.3664C25.4136 29.0631 26.5143 28.5058 26.5143 27.4571V10.3411C26.5143 8.883 26.5143 8.15333 26.3377 7.56667C26.1774 7.02184 25.9043 6.5248 25.5398 6.1142C25.1752 5.70359 24.729 5.39049 24.2358 5.19922C23.7128 5 23.0658 5 21.7707 5Z" stroke="#282828" stroke-width="1.5625"/>
<path id="Vector_2" d="M14.781 16H22.0444M10.8698 16H11.4286M10.8698 11.7222H11.4286M10.8698 20.2778H11.4286M14.781 11.7222H22.0444M14.781 20.2778H22.0444" stroke="#282828" stroke-width="1.5625" stroke-linecap="round"/>
</g>
</g>
</svg>
